<?xml version="1.0" encoding="utf-8"?>
<!-- Generator: Adobe Illustrator 26.1.0, SVG Export Plug-In . SVG Version: 6.00 Build 0)  -->
<svg version="1.1" id="Layer_1" xmlns="http://www.w3.org/2000/svg" xmlns:xlink="http://www.w3.org/1999/xlink" x="0px" y="0px"
	 viewBox="0 0 1920 1080" style="enable-background:new 0 0 1920 1080;" xml:space="preserve">
<style type="text/css">
	.st0{fill:#F4F5FF;}
	.st1{fill:#FFFFFF;}
	.st2{fill:#E6E6E6;}
	.st3{fill:#6C63FF;}
	.st4{fill:#3F3D56;}
	.st5{fill:#2F2E41;}
	.st6{fill:#A0616A;}
	.st7{fill:#AEA9FF;}
	.st8{fill:#CCCCCC;}
</style>
<g>
	<path class="st0" d="M952,1c22.3,86.5,162.8,600.2,596,756c58.6,21.1,131.7,62.2,372,68l-1.1-822.7L952,1z"/>
	<path class="st1" d="M1227.3,269.5v84.3c0,6.8,5.5,12.3,12.3,12.3h229.5c6.8,0,12.3-5.5,12.3-12.3v-84.3c0-6.8-5.5-12.3-12.3-12.3
		h-229.5C1232.8,257.2,1227.3,262.7,1227.3,269.5z"/>
	<path class="st2" d="M1227.3,269.5v84.3c0,6.8,5.5,12.3,12.3,12.3h229.5c6.8,0,12.3-5.5,12.3-12.3v-84.3c0-6.8-5.5-12.3-12.3-12.3
		h-229.5C1232.8,257.2,1227.3,262.7,1227.3,269.5z M1228.6,353.8v-84.3c0-6.1,5-11,11-11h229.5c6.1,0,11,5,11,11v84.3
		c0,6.1-5,11-11,11"/>
	<path class="st3" d="M1461.9,299.1L1461.9,299.1c0,1.9-1.6,3.5-3.5,3.5h-204c-1.9,0-3.5-1.6-3.5-3.5c0-1.9,1.6-3.5,3.5-3.5h204
		C1460.3,295.6,1461.9,297.2,1461.9,299.1z"/>
	<path class="st3" d="M1461.9,322.1L1461.9,322.1c0,1.9-1.6,3.5-3.5,3.5h-74c-1.9,0-3.5-1.6-3.5-3.5c0-1.9,1.6-3.5,3.5-3.5h74
		C1460.3,318.6,1461.9,320.2,1461.9,322.1z"/>
	<path class="st2" d="M1152.9,301.6c2.2,0,4,1.8,4,4c0,2.2-1.8,4-4,4"/>
	<path class="st2" d="M1012.9,309.6c-2.2,0-4-1.8-4-4c0-2.2,1.8-4,4-4"/>
	<line class="st2" x1="1180.5" y1="397.7" x2="1180.5" y2="398.7"/>
	<path class="st4" d="M1204,335.4v2c23.1,0,43.2,18.9,48.6,45.1l-8.7-2.2c4.2,4,8.5,10.7,11.1,16.1c1.6-5.9,4.5-13.2,7.8-17.9
		l-8.2,3.9C1249.2,355.1,1228.1,335.4,1204,335.4z"/>
	<path class="st3" d="M1212.8,418.4c0-2.2,1.8-4,4-4h52c2.2,0,4,1.8,4,4c0,2.2-1.8,4-4,4h-52
		C1214.6,422.4,1212.8,420.6,1212.8,418.4z"/>
	<circle class="st3" cx="1349.9" cy="303.6" r="14"/>
	<path class="st1" d="M1357.2,295.4c-0.7-0.4-1.7-0.2-2.1,0.5c-1.7,3.3-3.3,6.6-5,9.9c-1.3-2.1-3.1-3.9-5.1-5.5
		c-0.6-0.5-1.7-0.1-2.1,0.5c-0.5,0.8-0.1,1.6,0.5,2.1c2.3,1.8,4.1,4.2,5.3,6.9c0.5,1,2.1,0.9,2.6,0c2.1-4.1,4.2-8.2,6.2-12.4
		C1358.1,296.8,1357.9,295.9,1357.2,295.4z"/>
	<path class="st2" d="M1294.7,391.2c-2.1,0-3.8-1.7-3.8-3.8v-38.3c0-2.1,1.7-3.8,3.8-3.8h33.7c2.1,0,3.8,1.7,3.8,3.8
		c4.4,12.5,4.5,25.3,0,38.3c0,2.1-1.7,3.8-3.8,3.8H1294.7z"/>
	<path class="st1" d="M1295.5,346.4c-1.9,0-3.5,1.6-3.5,3.5v23.2c0,9.3,7.6,16.9,16.9,16.9h18.6c1.9,0,3.5-1.6,3.5-3.5v-30.2
		c0-5.5-4.4-9.9-9.9-9.9H1295.5z"/>
	<path class="st2" d="M1303,356.8c0-0.4,0.3-0.7,0.7-0.7h15.8c0.4,0,0.7,0.3,0.7,0.7s-0.3,0.7-0.7,0.7h-15.8
		C1303.3,357.6,1303,357.2,1303,356.8z"/>
	<path class="st2" d="M1303,372.2c0-0.4,0.3-0.7,0.7-0.7h15.8c0.4,0,0.7,0.3,0.7,0.7s-0.3,0.7-0.7,0.7h-15.8
		C1303.3,373,1303,372.6,1303,372.2z"/>
	<path class="st2" d="M1294.5,364.5c0-0.4,0.3-0.7,0.7-0.7h32.7c0.4,0,0.7,0.3,0.7,0.7s-0.3,0.7-0.7,0.7h-32.7
		C1294.8,365.3,1294.5,364.9,1294.5,364.5z"/>
	<path class="st2" d="M1294.1,378.5c0-0.4,0.3-0.7,0.7-0.7h13.7c0.4,0,0.7,0.3,0.7,0.7s-0.3,0.7-0.7,0.7h-13.7
		C1294.4,379.2,1294.1,378.9,1294.1,378.5z"/>
	<path class="st5" d="M1528.5,280.1c-1.6-4.3-2-8.9-0.8-13.3l2.5-2.5c0.8-3-1.5-3.8-2.1-6.9c-0.3-1.5-0.5-3-0.7-4.6
		c-1.1-9.8-9.9-14.1-19.4-17.4c-5.2-1.8-18.4,5.3-18.4,16.1c-2.2-2.8-6.7,10.1-1.6,16.4c2.9,3.6-0.2,9.2-2.9,12.9
		c-1.1,1.5-0.2,3.7,1.7,3.7c8.5-0.2,9.9,7.6,32.7,4c3.3-3.8,5.7-2.2,4.4-7c1.9,3.7,2.2,0.7,3.1,4.8
		C1529.5,284.5,1529.4,282.4,1528.5,280.1z"/>
	<path class="st6" d="M1496.2,245.1c6.9-3.9,15.6-1.5,19.5,5.4s1.5,15.6-5.4,19.5s-15.6,1.5-19.5-5.4
		C1486.9,257.8,1489.4,249,1496.2,245.1z"/>
	<polygon class="st6" points="1524.9,550.8 1514.1,551 1518.2,584.2 1525.5,584 	"/>
	<path class="st5" d="M1500.2,599.4L1500.2,599.4c0-0.9,0.5-1.7,1.2-2.1l8.1-4l5.5-12.8l0.1-12.9l11.4-1.3l1.7,8.2
		c0,0-3.4-0.5,0.8,3.1c4.2,3.6,2.2,10.8,2.2,10.8l0.9,13.3h-7.6l-0.4-8.3c-5.9,2.5-7.3,8.3-7.3,8.3h-14.6
		C1501.1,601.6,1500.2,600.6,1500.2,599.4z"/>
	<polygon class="st6" points="1497.4,527.5 1488.7,534.1 1511.6,558.4 1517.4,553.9 	"/>
	<path class="st5" d="M1506,581.3c-0.5-0.7-0.6-1.7-0.3-2.4l4.2-8l-3.1-13.6l-7.6-10.5l8.4-7.8l6.2,5.7c0,0-3,1.6,2.5,2.1
		s8.1,7.4,8.1,7.4l8.6,10.2l-6.1,4.4l-5.2-6.5c-3.3,5.5-1,11-1,11l-11.8,8.6C1508.1,582.6,1506.8,582.3,1506,581.3z"/>
	<path class="st5" d="M1538.5,414.6L1538.5,414.6c5.5-22.5-12-47.2-12.8-48.3l-5.1-5.1l2.3-3.4l-40.5,1.1l-1.8,6.8l-29.9,112.1
		l42.1,67l14.1-11.7l-27-48.6l15.3-45.6l7.8-10.3l8,128h15c0,0,9.3-27.1,2.6-69.4c-1.8-11.5,8.8-52,10-59.4
		C1538.9,424.9,1538.1,416.4,1538.5,414.6z"/>
	<path class="st6" d="M1525.7,366.3L1525.7,366.3l-5.2-5.1l2.3-3.4l-40.5,1.1l-1.8,6.8C1489.4,366.3,1521,368,1525.7,366.3z"/>
	<path class="st3" d="M1473.3,312.1l17.9-16l4.7-12.5c-1.9-1.3-3-3.6-2-8.3h18.7l1.5,5.9l8.8,4.9l11.3,24.5l-11.1,53.2
		c-14.3-6.4-41.8-0.2-41.2-2.9l1-23.3l-7.8-15.9l-0.4-1.9L1473.3,312.1z"/>
	<path class="st6" d="M1458.7,266.5L1458.7,266.5c-0.5-4.6,1.4-8.6,4.3-8.9c2.9-0.3,5.7,3.1,6.2,7.7c0.2,2,0,3.9-0.6,5.4l2,19.4
		l-9.1,0.7l-1-19.2C1459.6,270.3,1458.9,268.5,1458.7,266.5z"/>
	<path class="st3" d="M1495.1,286.7l0.8,2.9l-17.3,21.9l-5.3-11.2l-0.2-9.4l-3.2-12.3h-10c-3.4,15.6-1.8,32.7,5.5,51.8
		c0.8,5,6.2,7.9,10.9,5.8c1.6-0.7,34.3-31.4,34.6-39.2c0.4-9.1-17-7.3-17-7.3L1495.1,286.7z"/>
	<path class="st6" d="M1553.1,393.5L1553.1,393.5c1.5,4.5,5,7.3,7.8,6.4c2.8-0.9,4-5.3,2.5-9.8c-0.6-2-1.7-3.6-2.9-4.8l-6.5-18.9
		l-8.8,3.2l7.3,18.3C1552.3,389.6,1552.4,391.6,1553.1,393.5z"/>
	<path class="st3" d="M1510.9,286.7l26.2,64l8.1,29.5l4.9,3.5l9.1-3c0,0,1.2-7.5-2.1-20.5c-0.6-2.5,1.2-10,0.2-12.9
		c-2.6-7.4-8.7-11.4-12.3-20c-0.6-1.4-1.6-2.7-1.7-4.2c-1.7-19.1-12.9-33.4-15.4-35.4C1521.7,282.6,1510.9,286.7,1510.9,286.7z"/>
	<path class="st2" d="M1425.9,260.4v-38.3c0-2.1,1.7-3.8,3.8-3.8h33.7c2.1,0,3.8,1.7,3.8,3.8c4.4,12.5,4.5,25.3,0,38.3
		c0,2.1-1.7,3.8-3.8,3.8h-33.7C1427.6,264.2,1425.9,262.5,1425.9,260.4z"/>
	<path class="st1" d="M1430.5,219.4c-1.9,0-3.5,1.6-3.5,3.5v23.2c0,9.3,7.6,16.9,16.9,16.9h18.6c1.9,0,3.5-1.6,3.5-3.5v-30.2
		c0-5.5-4.4-9.9-9.9-9.9H1430.5z"/>
	<path class="st2" d="M1438,229.8c0-0.4,0.3-0.7,0.7-0.7h15.8c0.4,0,0.7,0.3,0.7,0.7c0,0.4-0.3,0.7-0.7,0.7h-15.8
		C1438.3,230.6,1438,230.2,1438,229.8z"/>
	<path class="st2" d="M1438,245.2c0-0.4,0.3-0.7,0.7-0.7h15.8c0.4,0,0.7,0.3,0.7,0.7c0,0.4-0.3,0.7-0.7,0.7h-15.8
		C1438.3,246,1438,245.6,1438,245.2z"/>
	<path class="st2" d="M1429.5,237.5c0-0.4,0.3-0.7,0.7-0.7h32.7c0.4,0,0.7,0.3,0.7,0.7s-0.3,0.7-0.7,0.7h-32.7
		C1429.8,238.3,1429.5,237.9,1429.5,237.5z"/>
	<path class="st2" d="M1429.1,251.5c0-0.4,0.3-0.7,0.7-0.7h13.7c0.4,0,0.7,0.3,0.7,0.7s-0.3,0.7-0.7,0.7h-13.7
		C1429.4,252.2,1429.1,251.9,1429.1,251.5z"/>
	<path class="st7" d="M1420,585.1L1420,585.1c0.6,2.5,0.9,5.1,0.9,7.6c-0.7,0.8-1.4,1.7-2,2.5l-0.1,0.1c-1.3,1.6-2.7,3.3-4,4.9
		c1.6,0.3,3.3,0.4,5,0.3c-0.1,0.2-0.1,0.4-0.2,0.6h-18c-2.2-4.7-3.9-9.7-5-14.7c-10.6,3.6-20.6,2.5-22.9-10
		c-2.4-2.6-4.3-5.6-5.6-8.8h0.1h0.1c2.8-0.4,3.6-4.1,1.2-5.6c-0.4-0.3-0.8-0.5-1.3-0.8c-0.7-0.4-1.5-0.8-2.3-1.1V560
		c-0.4-3,2.8-5,5.4-3.4c5.3,3.3,12.3,4.8,17.3,8.8c3.3,2.7,5.6,6.7,6.4,10.9v0.1c-0.3-3.8-0.3-7.7-0.1-11.5c0.2-3,0.7-6.1,1.3-9
		c0.7-3.4,1.6-6.7,2.8-10c-0.3-0.1-0.5-0.3-0.7-0.4c-11.4-0.2-19.4-5.4-15.7-19.8c-0.4-1.5-0.7-3-0.8-4.6h0.1
		c2.8-0.4,3.6-4.1,1.2-5.6c-0.4-0.3-0.8-0.5-1.3-0.8v-0.2c0.6-5.6,7.7-7.5,11.2-3.1c2.9,3.6,6.2,7.2,7.9,11.4
		c1.5,3.7,2.4,9.4,1.8,14.2c2.2-4.3,4.7-8.4,7.7-12.2c0.2-0.2,0.3-0.4,0.5-0.6c-1.6-2.5-1.8-5.7-3.6-8c-2.8-3.7-2.8-7.5,1.8-9.8
		c2.1-5.5,6.3-6.2,9.2-2.2c0.6,0.8,1.6,1.2,2.1,2.1c-0.3,0.4,0.8,6.4,1.2,6.3c-0.2,1.4-0.7,2.8-1.3,4.1c-1.7,3.5-4.6,6.5-8.1,8.4
		c-7.2,9-12.2,19.7-14.5,31c-0.4,2.1-0.8,4.2-1,6.3c-0.3,2.6-0.4,5.2-0.4,7.8c0,10.3,2.3,20.6,6.6,30c-0.5-2-0.6-4.1-0.3-6.2
		c0.6-4.7,2.9-9.1,4.8-13.5c2.1-5,9.2-5,11.2,0l0.1,0.1l-0.2,0.6C1416.8,582.7,1417.9,585.3,1420,585.1z"/>
	<path class="st8" d="M1586.3,601.6H1368c-0.7,0-1.2,0.5-1.2,1.2s0.5,1.2,1.2,1.2h218.3c0.7,0,1.2-0.5,1.2-1.2
		S1587,601.6,1586.3,601.6z"/>
	<path class="st5" d="M1499.3,240.6L1499.3,240.6c-5.7-2.3-13,1.5-13.1,5.3c0,1-0.9,1.9-1.3,2.9c-0.7,2.2-1.1,4.7-1.1,7.2l1.4,1.1
		c4.6-1.1,8.6-6.6,12.5-2c2.1,2.5,5.3,1.3,8.1,1.2l3.4,3.2l0.2-9.1c2.4,2.8,6.5,3.3,2.7,12.1l0.8,10.4l-5.7,4.5l-3,8.9l5.8,5.8
		l3.6,1.1c1.3-0.5,3.3-7.3,4.7-7.3c0.2,0,0.4,0,0.6,0c1.5,0.1,3-0.5,3.7-1.8c2-3.5,1.9-10.2-2.9-23c5.6-8.5-8.9-20.5-17.5-20.5
		L1499.3,240.6z"/>
	<ellipse class="st7" cx="1848.5" cy="251" rx="169.5" ry="141"/>
	<path class="st7" d="M1887,737c2-8.5,1.5-21.6-6-27c-12.5-9.1-41.7,5.5-42,20c-0.3,13.9,26,29.3,39,22
		C1884.2,748.5,1886.1,740.5,1887,737z"/>
	<path class="st7" d="M1757.3,517.1c-13.5-25-43.6-55.5-73.6-52.4c-50.4,5.2-89,104.5-58.2,140.3c29.6,34.5,127.1,14.3,142.7-31.8
		C1775.8,551.1,1763,527.6,1757.3,517.1z"/>
	<circle class="st7" cx="83.1" cy="781.7" r="125.9"/>
</g>
</svg>
